<?xml version="1.0" encoding="UTF-8" standalone="no"?>
<svg
   id="Ebene_1"
   viewBox="0 0 500 120"
   version="1.1"
   sodipodi:docname="miru.svg"
   inkscape:version="1.1.2 (0a00cf5339, 2022-02-04)"
   width="500"
   height="120"
   xmlns:inkscape="http://www.inkscape.org/namespaces/inkscape"
   xmlns:sodipodi="http://sodipodi.sourceforge.net/DTD/sodipodi-0.dtd"
   xmlns="http://www.w3.org/2000/svg"
   xmlns:svg="http://www.w3.org/2000/svg">
  <sodipodi:namedview
     id="namedview89"
     pagecolor="#ffffff"
     bordercolor="#666666"
     borderopacity="1.0"
     inkscape:pageshadow="2"
     inkscape:pageopacity="0.0"
     inkscape:pagecheckerboard="0"
     showgrid="false"
     inkscape:zoom="2.3312693"
     inkscape:cx="251.15073"
     inkscape:cy="52.11753"
     inkscape:window-width="1854"
     inkscape:window-height="989"
     inkscape:window-x="0"
     inkscape:window-y="0"
     inkscape:window-maximized="1"
     inkscape:current-layer="Ebene_1" />
  <defs
     id="defs4">
    <style
       id="style2">.cls-1{opacity:.34;}.cls-1,.cls-2,.cls-3{fill:#fff;stroke-width:0px;}.cls-3{opacity:.67;}</style>
  </defs>
  <circle
     class="cls-2"
     cx="160.17999"
     cy="87.43"
     r="20.43"
     id="circle6"
     style="fill:#002e7f;fill-opacity:1" />
  <path
     class="cls-1"
     d="m 98.04,44.98 c -0.07,0 -0.14,0 -0.21,0 -4.98,0.12 -9.73,2.11 -13.25,5.63 L 60.5,74.69 c -3.52,3.52 -5.51,8.27 -5.64,13.25 0,0.07 0,0.14 0,0.21 -0.38,10.69 -9.11,19.38 -19.81,19.69 C 23.28,108.2 13.66,98.59 14,86.81 c 0.31,-10.69 9,-19.43 19.69,-19.8 0.07,0 0.14,0 0.21,0 4.98,-0.13 9.73,-2.12 13.25,-5.64 L 71.23,37.29 c 3.52,-3.52 5.51,-8.27 5.64,-13.25 0,-0.07 0,-0.14 0,-0.21 0.39,-10.7 9.12,-19.38 19.82,-19.7 11.77,-0.35 21.39,9.27 21.04,21.04 -0.32,10.69 -9,19.43 -19.69,19.8 z"
     id="path8"
     style="fill:#002e7f;fill-opacity:1" />
  <path
     class="cls-3"
     d="m 160.9,44.98 c -0.07,0 -0.14,0 -0.21,0 -4.98,0.12 -9.73,2.11 -13.25,5.63 l -24.08,24.08 c -3.52,3.52 -5.51,8.27 -5.64,13.25 0,0.07 0,0.14 0,0.21 -0.38,10.69 -9.11,19.38 -19.81,19.69 -11.77,0.34 -21.38,-9.27 -21.04,-21.04 0.31,-10.69 9,-19.43 19.69,-19.8 0.07,0 0.14,0 0.21,0 4.98,-0.13 9.73,-2.12 13.25,-5.64 L 134.1,37.28 c 3.52,-3.52 5.51,-8.27 5.64,-13.25 0,-0.07 0,-0.14 0,-0.21 0.38,-10.69 9.11,-19.38 19.8,-19.69 11.77,-0.35 21.39,9.27 21.04,21.04 -0.32,10.69 -9,19.43 -19.69,19.8 z"
     id="path10"
     style="fill:#002e7f;fill-opacity:1" />
  <path
     class="cls-2"
     d="M 210.37,46.07 V 17.38 h 5.12 l 9.71,19.1 9.67,-19.1 h 5.12 v 28.69 h -4.34 V 24.88 l -8.77,17.09 h -3.36 l -8.81,-17.05 v 21.15 z"
     id="path12"
     style="fill:#002e7f;fill-opacity:1" />
  <path
     class="cls-2"
     d="M 245.82,46.07 V 17.38 h 4.34 v 28.69 z"
     id="path14"
     style="fill:#002e7f;fill-opacity:1" />
  <path
     class="cls-2"
     d="M 255.98,46.07 V 17.38 h 9.88 c 2.27,0 4.13,0.38 5.59,1.15 1.46,0.77 2.55,1.8 3.26,3.09 0.71,1.3 1.07,2.74 1.07,4.32 0,1.78 -0.47,3.39 -1.41,4.84 -0.94,1.45 -2.41,2.49 -4.41,3.11 l 6.11,12.17 h -5.04 L 265.46,34.5 h -5.12 V 46.06 H 256 Z m 4.34,-14.84 h 5.29 c 1.97,0 3.41,-0.48 4.32,-1.43 0.92,-0.96 1.37,-2.2 1.37,-3.73 0,-1.53 -0.45,-2.75 -1.35,-3.67 -0.9,-0.92 -2.36,-1.37 -4.39,-1.37 h -5.25 v 10.21 z"
     id="path16"
     style="fill:#002e7f;fill-opacity:1" />
  <path
     class="cls-2"
     d="m 291.64,46.57 c -2.05,0 -3.9,-0.4 -5.55,-1.21 -1.65,-0.81 -2.96,-2.04 -3.93,-3.71 -0.97,-1.67 -1.46,-3.78 -1.46,-6.35 V 17.39 h 4.34 v 17.95 c 0,2.51 0.6,4.36 1.8,5.53 1.2,1.18 2.83,1.76 4.88,1.76 2.05,0 3.63,-0.59 4.84,-1.76 1.2,-1.17 1.8,-3.02 1.8,-5.53 V 17.39 h 4.34 V 35.3 c 0,2.57 -0.5,4.69 -1.5,6.35 -1,1.67 -2.34,2.9 -4.02,3.71 -1.68,0.81 -3.53,1.21 -5.55,1.21 z"
     id="path18"
     style="fill:#002e7f;fill-opacity:1" />
  <path
     class="cls-2"
     d="m 209.23,76.07 v -17.5 h 3.12 l 5.92,11.65 5.9,-11.65 h 3.12 v 17.5 h -2.65 V 63.15 l -5.35,10.42 h -2.05 l -5.38,-10.4 v 12.9 h -2.65 z"
     id="path20"
     style="fill:#002e7f;fill-opacity:1" />
  <path
     class="cls-2"
     d="m 232.21,81.57 2.97,-6.52 h -0.72 l -4.9,-11.38 h 2.88 l 3.8,9.18 3.97,-9.18 h 2.8 l -8,17.9 z"
     id="path22"
     style="fill:#002e7f;fill-opacity:1" />
  <path
     class="cls-2"
     d="m 249.93,76.37 c -1.22,0 -2.3,-0.28 -3.26,-0.82 -0.96,-0.55 -1.71,-1.31 -2.25,-2.29 -0.54,-0.97 -0.81,-2.1 -0.81,-3.39 0,-1.29 0.27,-2.41 0.81,-3.39 0.54,-0.98 1.29,-1.74 2.25,-2.29 0.96,-0.55 2.05,-0.82 3.26,-0.82 1.53,0 2.82,0.4 3.86,1.2 1.04,0.8 1.71,1.88 2.01,3.25 h -2.77 c -0.17,-0.68 -0.53,-1.22 -1.1,-1.6 -0.57,-0.38 -1.23,-0.58 -2,-0.58 -0.65,0 -1.25,0.16 -1.8,0.49 -0.55,0.33 -0.99,0.8 -1.33,1.43 -0.34,0.63 -0.5,1.4 -0.5,2.31 0,0.91 0.17,1.69 0.5,2.31 0.33,0.62 0.78,1.1 1.33,1.44 0.55,0.33 1.15,0.5 1.8,0.5 0.77,0 1.43,-0.19 2,-0.57 0.57,-0.38 0.93,-0.93 1.1,-1.62 h 2.77 c -0.28,1.33 -0.95,2.41 -2,3.22 -1.05,0.82 -2.34,1.23 -3.88,1.23 z"
     id="path24"
     style="fill:#002e7f;fill-opacity:1" />
  <path
     class="cls-2"
     d="m 264.48,76.37 c -1.18,0 -2.25,-0.27 -3.19,-0.81 -0.94,-0.54 -1.69,-1.3 -2.24,-2.27 -0.55,-0.98 -0.83,-2.11 -0.83,-3.41 0,-1.3 0.28,-2.44 0.84,-3.41 0.56,-0.97 1.31,-1.73 2.26,-2.27 0.95,-0.54 2.01,-0.81 3.17,-0.81 1.16,0 2.25,0.27 3.19,0.81 0.94,0.54 1.69,1.3 2.25,2.27 0.56,0.98 0.84,2.11 0.84,3.41 0,1.3 -0.28,2.44 -0.84,3.41 -0.56,0.97 -1.31,1.73 -2.26,2.27 -0.95,0.54 -2.02,0.81 -3.2,0.81 z m 0,-2.27 c 0.63,0 1.22,-0.16 1.76,-0.48 0.54,-0.32 0.98,-0.79 1.31,-1.41 0.33,-0.62 0.5,-1.4 0.5,-2.34 0,-0.94 -0.16,-1.71 -0.49,-2.34 -0.33,-0.63 -0.76,-1.1 -1.3,-1.41 -0.54,-0.32 -1.13,-0.48 -1.76,-0.48 -0.63,0 -1.22,0.16 -1.76,0.48 -0.54,0.32 -0.98,0.79 -1.31,1.41 -0.33,0.62 -0.5,1.4 -0.5,2.34 0,0.94 0.17,1.71 0.5,2.34 0.33,0.63 0.77,1.1 1.3,1.41 0.53,0.32 1.12,0.48 1.75,0.48 z"
     id="path26"
     style="fill:#002e7f;fill-opacity:1" />
  <path
     class="cls-2"
     d="m 280.63,76.37 c -0.97,0 -1.82,-0.19 -2.56,-0.57 -0.74,-0.38 -1.33,-0.93 -1.76,-1.62 l -0.28,1.9 h -2.38 v -18 h 2.65 v 7.53 c 0.4,-0.58 0.95,-1.1 1.65,-1.55 0.7,-0.45 1.6,-0.67 2.7,-0.67 1.2,0 2.26,0.28 3.17,0.85 0.92,0.57 1.64,1.34 2.16,2.32 0.52,0.98 0.79,2.1 0.79,3.35 0,1.25 -0.26,2.36 -0.79,3.34 -0.53,0.97 -1.25,1.74 -2.16,2.3 -0.92,0.56 -1.98,0.84 -3.2,0.84 z m -0.45,-2.3 c 1.13,0 2.07,-0.39 2.8,-1.16 0.73,-0.78 1.1,-1.79 1.1,-3.04 0,-0.82 -0.17,-1.54 -0.5,-2.18 -0.33,-0.63 -0.79,-1.13 -1.38,-1.49 -0.58,-0.36 -1.26,-0.54 -2.02,-0.54 -1.13,0 -2.06,0.39 -2.79,1.18 -0.72,0.78 -1.09,1.79 -1.09,3.02 0,1.23 0.36,2.26 1.09,3.04 0.73,0.77 1.65,1.16 2.79,1.16 z"
     id="path28"
     style="fill:#002e7f;fill-opacity:1" />
  <path
     class="cls-2"
     d="m 293.86,76.37 c -1.05,0 -1.92,-0.18 -2.6,-0.53 -0.68,-0.35 -1.19,-0.81 -1.53,-1.39 -0.33,-0.57 -0.5,-1.2 -0.5,-1.89 0,-1.2 0.47,-2.15 1.4,-2.85 0.93,-0.7 2.27,-1.05 4,-1.05 h 3.25 v -0.23 c 0,-0.97 -0.26,-1.69 -0.79,-2.18 -0.52,-0.48 -1.2,-0.72 -2.04,-0.72 -0.73,0 -1.37,0.18 -1.91,0.54 -0.54,0.36 -0.87,0.89 -0.99,1.59 h -2.65 c 0.08,-0.9 0.39,-1.67 0.91,-2.31 0.53,-0.64 1.19,-1.13 2,-1.47 0.81,-0.34 1.7,-0.51 2.66,-0.51 1.73,0 3.08,0.45 4.03,1.36 0.95,0.91 1.42,2.15 1.42,3.71 v 7.62 h -2.3 L 298,73.94 c -0.35,0.68 -0.86,1.26 -1.53,1.73 -0.67,0.47 -1.54,0.7 -2.62,0.7 z m 0.53,-2.15 c 0.72,0 1.32,-0.17 1.81,-0.51 0.49,-0.34 0.88,-0.8 1.15,-1.36 0.28,-0.57 0.45,-1.19 0.51,-1.88 h -2.95 c -1.05,0 -1.8,0.18 -2.24,0.55 -0.44,0.37 -0.66,0.83 -0.66,1.38 0,0.55 0.21,1.01 0.64,1.34 0.43,0.32 1,0.49 1.74,0.49 z"
     id="path30"
     style="fill:#002e7f;fill-opacity:1" />
  <path
     class="cls-2"
     d="m 309.51,76.37 c -1.22,0 -2.3,-0.28 -3.26,-0.82 -0.96,-0.55 -1.71,-1.31 -2.25,-2.29 -0.54,-0.97 -0.81,-2.1 -0.81,-3.39 0,-1.29 0.27,-2.41 0.81,-3.39 0.54,-0.98 1.29,-1.74 2.25,-2.29 0.96,-0.55 2.05,-0.82 3.26,-0.82 1.53,0 2.82,0.4 3.86,1.2 1.04,0.8 1.71,1.88 2.01,3.25 h -2.77 c -0.17,-0.68 -0.53,-1.22 -1.1,-1.6 -0.57,-0.38 -1.23,-0.58 -2,-0.58 -0.65,0 -1.25,0.16 -1.8,0.49 -0.55,0.33 -0.99,0.8 -1.33,1.43 -0.34,0.63 -0.5,1.4 -0.5,2.31 0,0.91 0.17,1.69 0.5,2.31 0.33,0.62 0.78,1.1 1.33,1.44 0.55,0.33 1.15,0.5 1.8,0.5 0.77,0 1.43,-0.19 2,-0.57 0.57,-0.38 0.93,-0.93 1.1,-1.62 h 2.77 c -0.28,1.33 -0.95,2.41 -2,3.22 -1.05,0.82 -2.34,1.23 -3.88,1.23 z"
     id="path32"
     style="fill:#002e7f;fill-opacity:1" />
  <path
     class="cls-2"
     d="m 323.21,76.07 c -1.22,0 -2.18,-0.3 -2.9,-0.89 -0.72,-0.59 -1.07,-1.65 -1.07,-3.16 V 65.9 h -2.12 v -2.22 h 2.12 l 0.32,-3.15 h 2.33 v 3.15 h 3.5 v 2.22 h -3.5 v 6.12 c 0,0.68 0.15,1.15 0.44,1.41 0.29,0.26 0.8,0.39 1.51,0.39 h 1.42 v 2.25 z"
     id="path34"
     style="fill:#002e7f;fill-opacity:1" />
  <path
     class="cls-2"
     d="m 333.58,76.37 c -1.22,0 -2.3,-0.27 -3.24,-0.81 -0.94,-0.54 -1.68,-1.3 -2.21,-2.26 -0.53,-0.97 -0.8,-2.09 -0.8,-3.38 0,-1.29 0.26,-2.44 0.79,-3.43 0.52,-0.98 1.26,-1.75 2.2,-2.3 0.94,-0.55 2.04,-0.82 3.29,-0.82 1.25,0 2.28,0.27 3.17,0.81 0.9,0.54 1.6,1.26 2.1,2.16 0.5,0.9 0.75,1.89 0.75,2.97 0,0.17 0,0.35 -0.01,0.54 0,0.19 -0.02,0.4 -0.04,0.64 h -9.65 c 0.08,1.2 0.48,2.11 1.19,2.74 0.71,0.62 1.53,0.94 2.46,0.94 0.75,0 1.38,-0.17 1.89,-0.51 0.51,-0.34 0.89,-0.8 1.14,-1.39 h 2.65 c -0.33,1.17 -1,2.14 -1.99,2.93 -0.99,0.78 -2.22,1.18 -3.69,1.18 z m 0,-10.82 c -0.88,0 -1.67,0.26 -2.35,0.79 -0.68,0.53 -1.1,1.31 -1.25,2.36 h 7 c -0.05,-0.97 -0.39,-1.73 -1.03,-2.3 -0.63,-0.57 -1.42,-0.85 -2.38,-0.85 z"
     id="path36"
     style="fill:#002e7f;fill-opacity:1" />
  <path
     class="cls-2"
     d="m 342.38,76.07 v -12.4 h 2.38 l 0.23,2.35 c 0.43,-0.82 1.04,-1.46 1.81,-1.94 0.77,-0.47 1.71,-0.71 2.81,-0.71 v 2.77 h -0.73 c -0.73,0 -1.39,0.12 -1.96,0.36 -0.58,0.24 -1.03,0.65 -1.38,1.23 -0.34,0.57 -0.51,1.37 -0.51,2.39 v 5.95 z"
     id="path38"
     style="fill:#002e7f;fill-opacity:1" />
  <path
     class="cls-2"
     d="m 353.38,61.32 c -0.5,0 -0.91,-0.15 -1.24,-0.46 -0.33,-0.31 -0.49,-0.7 -0.49,-1.16 0,-0.46 0.16,-0.85 0.49,-1.16 0.33,-0.31 0.74,-0.46 1.24,-0.46 0.5,0 0.91,0.15 1.24,0.46 0.33,0.31 0.49,0.7 0.49,1.16 0,0.46 -0.16,0.85 -0.49,1.16 -0.32,0.31 -0.74,0.46 -1.24,0.46 z m -1.33,14.75 v -12.4 h 2.65 v 12.4 z"
     id="path40"
     style="fill:#002e7f;fill-opacity:1" />
  <path
     class="cls-2"
     d="m 362.41,76.37 c -1.05,0 -1.92,-0.18 -2.6,-0.53 -0.68,-0.35 -1.19,-0.81 -1.53,-1.39 -0.33,-0.57 -0.5,-1.2 -0.5,-1.89 0,-1.2 0.47,-2.15 1.4,-2.85 0.93,-0.7 2.27,-1.05 4,-1.05 h 3.25 v -0.23 c 0,-0.97 -0.26,-1.69 -0.79,-2.18 -0.52,-0.48 -1.2,-0.72 -2.04,-0.72 -0.73,0 -1.37,0.18 -1.91,0.54 -0.54,0.36 -0.87,0.89 -0.99,1.59 h -2.65 c 0.08,-0.9 0.39,-1.67 0.91,-2.31 0.53,-0.64 1.19,-1.13 2,-1.47 0.81,-0.34 1.7,-0.51 2.66,-0.51 1.73,0 3.08,0.45 4.03,1.36 0.95,0.91 1.42,2.15 1.42,3.71 v 7.62 h -2.3 l -0.22,-2.12 c -0.35,0.68 -0.86,1.26 -1.53,1.73 -0.67,0.47 -1.54,0.7 -2.62,0.7 z m 0.53,-2.15 c 0.72,0 1.32,-0.17 1.81,-0.51 0.49,-0.34 0.88,-0.8 1.15,-1.36 0.28,-0.57 0.45,-1.19 0.51,-1.88 h -2.95 c -1.05,0 -1.8,0.18 -2.24,0.55 -0.44,0.37 -0.66,0.83 -0.66,1.38 0,0.55 0.21,1.01 0.64,1.34 0.43,0.32 1,0.49 1.74,0.49 z"
     id="path42"
     style="fill:#002e7f;fill-opacity:1" />
  <path
     class="cls-2"
     d="m 372.18,76.07 v -18 h 2.65 v 18 z"
     id="path44"
     style="fill:#002e7f;fill-opacity:1" />
  <path
     class="cls-2"
     d="m 384.58,76.07 v -17.5 h 2.65 v 17.5 z"
     id="path46"
     style="fill:#002e7f;fill-opacity:1" />
  <path
     class="cls-2"
     d="m 390.68,76.07 v -12.4 h 2.35 l 0.2,2.18 c 0.38,-0.77 0.95,-1.37 1.69,-1.81 0.74,-0.44 1.6,-0.66 2.56,-0.66 1.5,0 2.68,0.47 3.54,1.4 0.86,0.93 1.29,2.33 1.29,4.17 v 7.12 h -2.62 v -6.85 c 0,-2.4 -0.98,-3.6 -2.95,-3.6 -0.98,0 -1.8,0.35 -2.44,1.05 -0.64,0.7 -0.96,1.7 -0.96,3 v 6.4 h -2.65 z"
     id="path48"
     style="fill:#002e7f;fill-opacity:1" />
  <path
     class="cls-2"
     d="M 406.06,76.07 V 65.89 h -1.77 v -2.22 h 1.77 v -1.8 c 0,-1.35 0.34,-2.32 1.01,-2.91 0.67,-0.59 1.63,-0.89 2.86,-0.89 h 1.3 v 2.25 h -0.9 c -0.58,0 -1,0.12 -1.25,0.36 -0.25,0.24 -0.38,0.65 -0.38,1.21 v 1.78 h 2.85 v 2.22 h -2.85 v 10.18 h -2.65 z"
     id="path50"
     style="fill:#002e7f;fill-opacity:1" />
  <path
     class="cls-2"
     d="m 419.38,76.37 c -1.22,0 -2.3,-0.27 -3.24,-0.81 -0.94,-0.54 -1.68,-1.3 -2.21,-2.26 -0.53,-0.97 -0.8,-2.09 -0.8,-3.38 0,-1.29 0.26,-2.44 0.79,-3.43 0.52,-0.98 1.26,-1.75 2.2,-2.3 0.94,-0.55 2.04,-0.82 3.29,-0.82 1.25,0 2.28,0.27 3.17,0.81 0.9,0.54 1.6,1.26 2.1,2.16 0.5,0.9 0.75,1.89 0.75,2.97 0,0.17 0,0.35 -0.01,0.54 0,0.19 -0.02,0.4 -0.04,0.64 h -9.65 c 0.08,1.2 0.48,2.11 1.19,2.74 0.71,0.62 1.53,0.94 2.46,0.94 0.75,0 1.38,-0.17 1.89,-0.51 0.51,-0.34 0.89,-0.8 1.14,-1.39 h 2.65 c -0.33,1.17 -1,2.14 -1.99,2.93 -0.99,0.78 -2.22,1.18 -3.69,1.18 z m 0,-10.82 c -0.88,0 -1.67,0.26 -2.35,0.79 -0.68,0.53 -1.1,1.31 -1.25,2.36 h 7 c -0.05,-0.97 -0.39,-1.73 -1.03,-2.3 -0.63,-0.57 -1.42,-0.85 -2.38,-0.85 z"
     id="path52"
     style="fill:#002e7f;fill-opacity:1" />
  <path
     class="cls-2"
     d="m 434.06,76.37 c -1.22,0 -2.3,-0.28 -3.26,-0.82 -0.96,-0.55 -1.71,-1.31 -2.25,-2.29 -0.54,-0.97 -0.81,-2.1 -0.81,-3.39 0,-1.29 0.27,-2.41 0.81,-3.39 0.54,-0.98 1.29,-1.74 2.25,-2.29 0.96,-0.55 2.05,-0.82 3.26,-0.82 1.53,0 2.82,0.4 3.86,1.2 1.04,0.8 1.71,1.88 2.01,3.25 h -2.77 c -0.17,-0.68 -0.53,-1.22 -1.1,-1.6 -0.57,-0.38 -1.23,-0.58 -2,-0.58 -0.65,0 -1.25,0.16 -1.8,0.49 -0.55,0.33 -0.99,0.8 -1.33,1.43 -0.34,0.63 -0.5,1.4 -0.5,2.31 0,0.91 0.17,1.69 0.5,2.31 0.33,0.62 0.78,1.1 1.33,1.44 0.55,0.33 1.15,0.5 1.8,0.5 0.77,0 1.43,-0.19 2,-0.57 0.57,-0.38 0.93,-0.93 1.1,-1.62 h 2.77 c -0.28,1.33 -0.95,2.41 -2,3.22 -1.05,0.82 -2.34,1.23 -3.88,1.23 z"
     id="path54"
     style="fill:#002e7f;fill-opacity:1" />
  <path
     class="cls-2"
     d="m 447.76,76.07 c -1.22,0 -2.18,-0.3 -2.9,-0.89 -0.72,-0.59 -1.07,-1.65 -1.07,-3.16 V 65.9 h -2.12 v -2.22 h 2.12 l 0.32,-3.15 h 2.33 v 3.15 h 3.5 v 2.22 h -3.5 v 6.12 c 0,0.68 0.15,1.15 0.44,1.41 0.29,0.26 0.8,0.39 1.51,0.39 h 1.42 v 2.25 z"
     id="path56"
     style="fill:#002e7f;fill-opacity:1" />
  <path
     class="cls-2"
     d="m 454.16,61.32 c -0.5,0 -0.91,-0.15 -1.24,-0.46 -0.33,-0.31 -0.49,-0.7 -0.49,-1.16 0,-0.46 0.16,-0.85 0.49,-1.16 0.33,-0.31 0.74,-0.46 1.24,-0.46 0.5,0 0.91,0.15 1.24,0.46 0.33,0.31 0.49,0.7 0.49,1.16 0,0.46 -0.16,0.85 -0.49,1.16 -0.32,0.31 -0.74,0.46 -1.24,0.46 z m -1.33,14.75 v -12.4 h 2.65 v 12.4 z"
     id="path58"
     style="fill:#002e7f;fill-opacity:1" />
  <path
     class="cls-2"
     d="m 464.78,76.37 c -1.18,0 -2.25,-0.27 -3.19,-0.81 -0.94,-0.54 -1.69,-1.3 -2.24,-2.27 -0.55,-0.98 -0.83,-2.11 -0.83,-3.41 0,-1.3 0.28,-2.44 0.84,-3.41 0.56,-0.97 1.31,-1.73 2.26,-2.27 0.95,-0.54 2.01,-0.81 3.17,-0.81 1.16,0 2.25,0.27 3.19,0.81 0.94,0.54 1.69,1.3 2.25,2.27 0.56,0.98 0.84,2.11 0.84,3.41 0,1.3 -0.28,2.44 -0.84,3.41 -0.56,0.97 -1.31,1.73 -2.26,2.27 -0.95,0.54 -2.02,0.81 -3.2,0.81 z m 0,-2.27 c 0.63,0 1.22,-0.16 1.76,-0.48 0.54,-0.32 0.98,-0.79 1.31,-1.41 0.33,-0.62 0.5,-1.4 0.5,-2.34 0,-0.94 -0.16,-1.71 -0.49,-2.34 -0.33,-0.63 -0.76,-1.1 -1.3,-1.41 -0.54,-0.32 -1.13,-0.48 -1.76,-0.48 -0.63,0 -1.22,0.16 -1.76,0.48 -0.54,0.32 -0.98,0.79 -1.31,1.41 -0.33,0.62 -0.5,1.4 -0.5,2.34 0,0.94 0.17,1.71 0.5,2.34 0.33,0.63 0.77,1.1 1.3,1.41 0.53,0.32 1.12,0.48 1.75,0.48 z"
     id="path60"
     style="fill:#002e7f;fill-opacity:1" />
  <path
     class="cls-2"
     d="m 473.96,76.07 v -12.4 h 2.35 l 0.2,2.18 c 0.38,-0.77 0.95,-1.37 1.69,-1.81 0.74,-0.44 1.6,-0.66 2.56,-0.66 1.5,0 2.68,0.47 3.54,1.4 0.86,0.93 1.29,2.33 1.29,4.17 v 7.12 h -2.62 v -6.85 c 0,-2.4 -0.98,-3.6 -2.95,-3.6 -0.98,0 -1.8,0.35 -2.44,1.05 -0.64,0.7 -0.96,1.7 -0.96,3 v 6.4 h -2.65 z"
     id="path62"
     style="fill:#002e7f;fill-opacity:1" />
  <path
     class="cls-2"
     d="m 209.11,96.07 v -17.5 h 6.02 c 1.38,0 2.52,0.23 3.41,0.7 0.89,0.47 1.55,1.1 1.99,1.89 0.43,0.79 0.65,1.67 0.65,2.64 0,1.08 -0.29,2.07 -0.86,2.95 -0.58,0.88 -1.47,1.52 -2.69,1.9 l 3.73,7.43 h -3.08 l -3.4,-7.05 h -3.12 v 7.05 h -2.65 z m 2.65,-9.05 h 3.23 c 1.2,0 2.08,-0.29 2.64,-0.88 0.56,-0.58 0.84,-1.34 0.84,-2.27 0,-0.93 -0.28,-1.68 -0.83,-2.24 -0.55,-0.56 -1.44,-0.84 -2.67,-0.84 h -3.2 v 6.22 z"
     id="path64"
     style="fill:#002e7f;fill-opacity:1" />
  <path
     class="cls-2"
     d="m 229.25,96.37 c -1.22,0 -2.3,-0.27 -3.24,-0.81 -0.94,-0.54 -1.68,-1.3 -2.21,-2.26 -0.53,-0.97 -0.8,-2.09 -0.8,-3.38 0,-1.29 0.26,-2.44 0.79,-3.43 0.52,-0.98 1.26,-1.75 2.2,-2.3 0.94,-0.55 2.04,-0.82 3.29,-0.82 1.25,0 2.28,0.27 3.17,0.81 0.9,0.54 1.6,1.26 2.1,2.16 0.5,0.9 0.75,1.89 0.75,2.97 0,0.17 0,0.35 -0.01,0.54 0,0.19 -0.02,0.4 -0.04,0.64 h -9.65 c 0.08,1.2 0.48,2.11 1.19,2.74 0.71,0.62 1.53,0.94 2.46,0.94 0.75,0 1.38,-0.17 1.89,-0.51 0.51,-0.34 0.89,-0.8 1.14,-1.39 h 2.65 c -0.33,1.17 -1,2.14 -1.99,2.93 -0.99,0.78 -2.22,1.18 -3.69,1.18 z m 0,-10.82 c -0.88,0 -1.67,0.26 -2.35,0.79 -0.68,0.53 -1.1,1.31 -1.25,2.36 h 7 c -0.05,-0.97 -0.39,-1.73 -1.03,-2.3 -0.63,-0.57 -1.42,-0.85 -2.38,-0.85 z"
     id="path66"
     style="fill:#002e7f;fill-opacity:1" />
  <path
     class="cls-2"
     d="m 243,96.37 c -1.57,0 -2.86,-0.38 -3.88,-1.15 -1.02,-0.77 -1.6,-1.78 -1.75,-3.05 h 2.67 c 0.13,0.57 0.45,1.05 0.95,1.46 0.5,0.41 1.16,0.61 1.97,0.61 0.81,0 1.38,-0.17 1.75,-0.5 0.37,-0.33 0.55,-0.72 0.55,-1.15 0,-0.63 -0.25,-1.06 -0.76,-1.29 -0.51,-0.23 -1.21,-0.43 -2.11,-0.61 -0.7,-0.15 -1.4,-0.35 -2.09,-0.6 -0.69,-0.25 -1.27,-0.6 -1.72,-1.06 -0.46,-0.46 -0.69,-1.08 -0.69,-1.86 0,-1.08 0.42,-1.99 1.25,-2.71 0.83,-0.72 2,-1.09 3.5,-1.09 1.38,0 2.5,0.33 3.36,1 0.86,0.67 1.36,1.61 1.51,2.82 h -2.55 c -0.08,-0.53 -0.33,-0.95 -0.74,-1.25 -0.41,-0.3 -0.95,-0.45 -1.64,-0.45 -0.69,0 -1.18,0.14 -1.55,0.41 -0.37,0.27 -0.55,0.63 -0.55,1.06 0,0.43 0.25,0.77 0.76,1.02 0.51,0.25 1.18,0.48 2.01,0.68 0.83,0.18 1.6,0.4 2.31,0.64 0.71,0.24 1.28,0.6 1.71,1.06 0.43,0.47 0.65,1.15 0.65,2.05 0.02,1.13 -0.42,2.07 -1.31,2.82 -0.89,0.75 -2.1,1.12 -3.64,1.12 z"
     id="path68"
     style="fill:#002e7f;fill-opacity:1" />
  <path
     class="cls-2"
     d="m 256.65,96.37 c -1.22,0 -2.3,-0.27 -3.24,-0.81 -0.94,-0.54 -1.68,-1.3 -2.21,-2.26 -0.53,-0.97 -0.8,-2.09 -0.8,-3.38 0,-1.29 0.26,-2.44 0.79,-3.43 0.52,-0.98 1.26,-1.75 2.2,-2.3 0.94,-0.55 2.04,-0.82 3.29,-0.82 1.25,0 2.28,0.27 3.17,0.81 0.9,0.54 1.6,1.26 2.1,2.16 0.5,0.9 0.75,1.89 0.75,2.97 0,0.17 0,0.35 -0.01,0.54 0,0.19 -0.02,0.4 -0.04,0.64 H 253 c 0.08,1.2 0.48,2.11 1.19,2.74 0.71,0.62 1.53,0.94 2.46,0.94 0.75,0 1.38,-0.17 1.89,-0.51 0.51,-0.34 0.89,-0.8 1.14,-1.39 h 2.65 c -0.33,1.17 -1,2.14 -1.99,2.93 -0.99,0.78 -2.22,1.18 -3.69,1.18 z m 0,-10.82 c -0.88,0 -1.67,0.26 -2.35,0.79 -0.68,0.53 -1.1,1.31 -1.25,2.36 h 7 c -0.05,-0.97 -0.39,-1.73 -1.03,-2.3 -0.63,-0.57 -1.42,-0.85 -2.38,-0.85 z"
     id="path70"
     style="fill:#002e7f;fill-opacity:1" />
  <path
     class="cls-2"
     d="m 269.65,96.37 c -1.05,0 -1.92,-0.18 -2.6,-0.53 -0.68,-0.35 -1.19,-0.81 -1.53,-1.39 -0.33,-0.57 -0.5,-1.2 -0.5,-1.89 0,-1.2 0.47,-2.15 1.4,-2.85 0.93,-0.7 2.27,-1.05 4,-1.05 h 3.25 v -0.23 c 0,-0.97 -0.26,-1.69 -0.79,-2.18 -0.52,-0.48 -1.2,-0.72 -2.04,-0.72 -0.73,0 -1.37,0.18 -1.91,0.54 -0.54,0.36 -0.87,0.89 -0.99,1.59 h -2.65 c 0.08,-0.9 0.39,-1.67 0.91,-2.31 0.53,-0.64 1.19,-1.13 2,-1.47 0.81,-0.34 1.7,-0.51 2.66,-0.51 1.73,0 3.08,0.45 4.03,1.36 0.95,0.91 1.42,2.15 1.42,3.71 v 7.62 h -2.3 l -0.22,-2.12 c -0.35,0.68 -0.86,1.26 -1.53,1.73 -0.67,0.47 -1.54,0.7 -2.62,0.7 z m 0.53,-2.15 c 0.72,0 1.32,-0.17 1.81,-0.51 0.49,-0.34 0.88,-0.8 1.15,-1.36 0.28,-0.57 0.45,-1.19 0.51,-1.88 h -2.95 c -1.05,0 -1.8,0.18 -2.24,0.55 -0.44,0.37 -0.66,0.83 -0.66,1.38 0,0.55 0.21,1.01 0.64,1.34 0.43,0.32 1,0.49 1.74,0.49 z"
     id="path72"
     style="fill:#002e7f;fill-opacity:1" />
  <path
     class="cls-2"
     d="m 279.43,96.07 v -12.4 h 2.38 l 0.23,2.35 c 0.43,-0.82 1.04,-1.46 1.81,-1.94 0.77,-0.47 1.71,-0.71 2.81,-0.71 v 2.77 h -0.73 c -0.73,0 -1.39,0.12 -1.96,0.36 -0.58,0.24 -1.03,0.65 -1.38,1.23 -0.34,0.57 -0.51,1.37 -0.51,2.39 v 5.95 z"
     id="path74"
     style="fill:#002e7f;fill-opacity:1" />
  <path
     class="cls-2"
     d="m 294.45,96.37 c -1.22,0 -2.3,-0.28 -3.26,-0.82 -0.96,-0.55 -1.71,-1.31 -2.25,-2.29 -0.54,-0.97 -0.81,-2.1 -0.81,-3.39 0,-1.29 0.27,-2.41 0.81,-3.39 0.54,-0.98 1.29,-1.74 2.25,-2.29 0.96,-0.55 2.05,-0.82 3.26,-0.82 1.53,0 2.82,0.4 3.86,1.2 1.04,0.8 1.71,1.88 2.01,3.25 h -2.77 c -0.17,-0.68 -0.53,-1.22 -1.1,-1.6 -0.57,-0.38 -1.23,-0.58 -2,-0.58 -0.65,0 -1.25,0.16 -1.8,0.49 -0.55,0.33 -0.99,0.8 -1.33,1.43 -0.34,0.63 -0.5,1.4 -0.5,2.31 0,0.91 0.17,1.69 0.5,2.31 0.33,0.62 0.78,1.1 1.33,1.44 0.55,0.33 1.15,0.5 1.8,0.5 0.77,0 1.43,-0.19 2,-0.57 0.57,-0.38 0.93,-0.93 1.1,-1.62 h 2.77 c -0.28,1.33 -0.95,2.41 -2,3.22 -1.05,0.82 -2.34,1.23 -3.88,1.23 z"
     id="path76"
     style="fill:#002e7f;fill-opacity:1" />
  <path
     class="cls-2"
     d="m 303.2,96.07 v -18 h 2.65 v 7.6 c 0.42,-0.72 1,-1.28 1.74,-1.69 0.74,-0.41 1.56,-0.61 2.46,-0.61 1.48,0 2.65,0.47 3.5,1.4 0.85,0.93 1.27,2.33 1.27,4.17 v 7.12 h -2.62 v -6.85 c 0,-2.4 -0.96,-3.6 -2.88,-3.6 -1,0 -1.83,0.35 -2.49,1.05 -0.66,0.7 -0.99,1.7 -0.99,3 v 6.4 h -2.65 z"
     id="path78"
     style="fill:#002e7f;fill-opacity:1" />
  <path
     class="cls-2"
     d="m 330.9,96.37 c -1.25,0 -2.38,-0.25 -3.39,-0.74 -1.01,-0.49 -1.81,-1.25 -2.4,-2.26 -0.59,-1.02 -0.89,-2.31 -0.89,-3.88 V 78.57 h 2.65 v 10.95 c 0,1.53 0.37,2.66 1.1,3.38 0.73,0.72 1.72,1.08 2.97,1.08 1.25,0 2.22,-0.36 2.95,-1.08 0.73,-0.72 1.1,-1.84 1.1,-3.38 V 78.57 h 2.65 v 10.92 c 0,1.57 -0.3,2.86 -0.91,3.88 -0.61,1.02 -1.42,1.77 -2.45,2.26 -1.03,0.49 -2.15,0.74 -3.39,0.74 z"
     id="path80"
     style="fill:#002e7f;fill-opacity:1" />
  <path
     class="cls-2"
     d="m 340.95,96.07 v -12.4 h 2.35 l 0.2,2.18 c 0.38,-0.77 0.95,-1.37 1.69,-1.81 0.74,-0.44 1.6,-0.66 2.56,-0.66 1.5,0 2.68,0.47 3.54,1.4 0.86,0.93 1.29,2.33 1.29,4.17 v 7.12 h -2.62 v -6.85 c 0,-2.4 -0.98,-3.6 -2.95,-3.6 -0.98,0 -1.8,0.35 -2.44,1.05 -0.64,0.7 -0.96,1.7 -0.96,3 v 6.4 h -2.65 z"
     id="path82"
     style="fill:#002e7f;fill-opacity:1" />
  <path
     class="cls-2"
     d="m 357.2,81.32 c -0.5,0 -0.91,-0.15 -1.24,-0.46 -0.33,-0.31 -0.49,-0.7 -0.49,-1.16 0,-0.46 0.16,-0.85 0.49,-1.16 0.33,-0.31 0.74,-0.46 1.24,-0.46 0.5,0 0.91,0.15 1.24,0.46 0.33,0.31 0.49,0.7 0.49,1.16 0,0.46 -0.16,0.85 -0.49,1.16 -0.32,0.31 -0.74,0.46 -1.24,0.46 z m -1.33,14.75 v -12.4 h 2.65 v 12.4 z"
     id="path84"
     style="fill:#002e7f;fill-opacity:1" />
  <path
     class="cls-2"
     d="m 367.23,96.07 c -1.22,0 -2.18,-0.3 -2.9,-0.89 -0.72,-0.59 -1.07,-1.65 -1.07,-3.16 V 85.9 h -2.12 v -2.22 h 2.12 l 0.32,-3.15 h 2.33 v 3.15 h 3.5 v 2.22 h -3.5 v 6.12 c 0,0.68 0.15,1.15 0.44,1.41 0.29,0.26 0.8,0.39 1.51,0.39 h 1.42 v 2.25 z"
     id="path86"
     style="fill:#002e7f;fill-opacity:1" />
</svg>
