<svg height="82" viewBox="0 0 186 82" width="186" xmlns="http://www.w3.org/2000/svg"><g fill="#026291"><g transform="translate(0 30.93317)"><path d="m4.50618557 19.3668543c1.53402062 0 2.68453608-.38541 3.45154639-1.0598776.76701031-.77082 1.15051546-1.8306976 1.15051546-3.2759853v-10.791481h-1.53402062-1.43814433v10.8878335c0 .7708201-.09587628 1.2525827-.38350515 1.5416402-.19175258.2890575-.67113402.4817625-1.24639175.4817625s-.95876289-.192705-1.24639176-.4817625c-.19175257-.2890575-.38350515-.7708201-.38350515-1.5416402v-10.8878335h-1.34226804-1.53402062v10.6951285c0 1.4452877.38350516 2.6015178 1.15051546 3.2759853.76701031.7708201 1.91752578 1.1562301 3.35567011 1.1562301z"/><path d="m14.285567 19.1741493v-12.71853118l2.5886598 12.71853118h2.2051546 2.2051547v-14.9346389h-1.2463918-1.2463917v12.6221787l-2.4927835-12.6221787h-2.301031-2.2051546v14.9346389h1.2463918z"/><path d="m27.0371134 19.1741493v-14.9346389h-1.5340206-1.5340206v14.9346389h1.5340206z"/><path d="m34.1319588 19.1741493h1.7257732l3.1639175-14.83828639h-1.4381443-1.4381444l-1.9175257 11.46594859-2.1092784-11.46594859h-1.5340206-1.4381443l3.1639175 14.83828639z"/><path d="m48.7051546 18.0179192v-1.0598776h-4.4103092v-4.3358629h4.2185567v-1.0598776-1.1562301h-4.2185567v-3.95045288h4.314433v-1.05987761-1.15623011h-7.3824743v14.9346389h7.4783505z"/><path d="m54.457732 19.1741493v-6.0702081h.8628866c.7670103 0 1.2463917.1927051 1.5340206.4817626.2876288.2890575.4793814.8671726.3835051 1.5416401v1.8306977 1.4452877c0 .2890575.0958763.578115.0958763.77082h1.5340206 1.5340207c-.0958763-.192705-.0958763-.38541-.0958763-.77082 0-.3854101-.0958763-.8671726-.0958763-1.4452877 0-.578115 0-1.2525826 0-1.8306977.0958763-.9635251-.0958763-1.8306976-.5752578-2.3124602-.3835051-.578115-1.0546391-.7708201-1.9175257-.7708201h-.1917526c.671134-.192705 1.2463917-.38541 1.6298969-.6744675.671134-.5781151 1.0546392-1.63799267 1.0546392-3.17963282 0-1.34893513-.3835052-2.40881273-1.0546392-2.98692778-.671134-.57811506-1.8216495-.86717259-3.3556701-.86717259h-2.9721649-1.5340207v14.83828639h1.5340207zm0-12.71853118h.8628866c.7670103 0 1.2463917.19270501 1.5340206.48176254.2876288.28905753.3835051.86717258.3835051 1.63799266 0 .86717258-.0958763 1.44528768-.3835051 1.73434518-.2876289.2890575-.7670103.4817625-1.5340206.4817625h-.8628866z"/><path d="m67.4969072 19.3668543c1.5340206 0 2.6845361-.38541 3.4515464-1.1562301.7670103-.77082 1.1505155-1.8306976 1.1505155-3.3723378 0-.9635251-.2876289-1.8306977-.8628866-2.5051652-.5752578-.6744676-1.6298969-1.3489352-3.1639176-2.1197552-.7670103-.38541006-1.2463917-.67446759-1.6298969-1.05987763-.2876288-.28905753-.4793814-.77082007-.4793814-1.15623011 0-.57811505.0958763-1.0598776.3835052-1.34893513.2876288-.28905752.671134-.48176254 1.1505154-.48176254.4793815 0 .8628866.19270502 1.0546392.48176254.1917526.28905753.2876289.86717259.2876289 1.63799266v.48176255h3.0680412v-.48176255-.28905753c0-1.44528764-.2876289-2.40881273-.9587629-3.08328029-.671134-.67446757-1.8216495-.96352509-3.3556701-.96352509s-2.6845361.38541003-3.4515464 1.0598776c-.7670103.67446756-1.1505155 1.83069767-1.1505155 3.27598531 0 .96352509.2876289 1.73434521.8628866 2.40881271.5752578.6744676 1.5340207 1.3489351 2.972165 2.0234027.8628866.38541 1.4381443.7708201 1.7257732 1.1562301.2876289.3854101.4793814.7708201.4793814 1.2525826 0 .6744676-.0958763 1.1562302-.3835051 1.4452877-.2876289.2890575-.671134.4817625-1.2463918.4817625-.5752577 0-.9587629-.192705-1.2463917-.578115-.2876289-.3854101-.3835052-.8671726-.3835052-1.6379927v-.4817625h-2.9721649v.4817625.0963525c0 1.5416402.3835051 2.6015178 1.0546391 3.2759853.7670104.7708201 1.9175258 1.1562301 3.643299 1.1562301z"/><path d="m77.8515464 19.1741493v-14.9346389h-1.5340206-1.5340206v14.9346389h1.5340206z"/><path d="m83.4123711 19.1741493h1.4381444 1.5340206v-12.71853118h3.1639175v-1.05987761-1.15623011h-9.3958763v1.15623011 1.05987761h3.2597938z"/><path d="m91.753608.674468h2.396907v2.408813h-2.396907z"/><path d="m95.780412.674468h2.396907v2.408813h-2.396907z"/><path d="m92.7123711 19.1741493.5752578-3.1796328h3.2597938l.5752577 3.1796328h1.4381443 1.4381444l-3.3556701-14.83828639h-1.7257732-1.7257732l-3.3556701 14.83828639h1.4381443zm2.301031-12.14041613 1.2463917 6.64832313h-2.3969072z"/><path d="m103.642268 19.1741493h1.534021 1.438144v-12.71853118h3.259794v-1.05987761-1.15623011h-9.395876v1.15623011 1.05987761h3.163917z"/><path d="m115.818557 19.3668543c1.53402 0 2.684536-.38541 3.451546-1.1562301.76701-.77082 1.150516-1.8306976 1.150516-3.3723378 0-.9635251-.287629-1.8306977-.862887-2.5051652-.575258-.6744676-1.629897-1.3489352-3.163918-2.1197552-.76701-.38541006-1.246391-.67446759-1.629896-1.05987763-.287629-.28905753-.479382-.77082007-.479382-1.15623011 0-.57811505.095876-1.0598776.383505-1.34893513.287629-.28905752.671134-.48176254 1.150516-.48176254.479381 0 .862886.19270502 1.054639.48176254.191752.28905753.287629.86717259.287629 1.63799266v.48176255h2.972165v-.48176255-.28905753c0-1.44528764-.287629-2.40881273-.958763-3.08328029-.671134-.67446757-1.82165-.96352509-3.35567-.96352509-1.534021 0-2.684536.38541003-3.451547 1.0598776-.76701.67446756-1.150515 1.83069767-1.150515 3.27598531 0 .96352509.287629 1.73434521.862886 2.40881271.575258.6744676 1.534021 1.3489351 2.972165 2.0234027.862887.38541 1.438145.7708201 1.725774 1.1562301.287628.3854101.479381.7708201.479381 1.2525826 0 .6744676-.095876 1.1562302-.383505 1.4452877s-.671134.4817625-1.246392.4817625-.958763-.192705-1.246392-.578115c-.287628-.3854101-.383505-.8671726-.383505-1.6379927v-.4817625h-2.780412v.4817625.0963525c0 1.5416402.383505 2.6015178 1.054639 3.2759853.671134.7708201 1.917526 1.1562301 3.547423 1.1562301z"/><path d="m20.5175258 24.2808323v14.9346389h1.5340206 1.4381443v-14.9346389h-1.4381443z"/><path d="m33.2690722 24.2808323v12.6221787l-2.5886598-12.6221787h-2.2051547-2.2051546v14.9346389h1.2463917 1.1505155v-12.7185312l2.5886598 12.7185312h2.3010309 2.2051547v-14.9346389h-1.2463918z"/><path d="m38.3505155 24.2808323v14.9346389h1.5340206 1.4381443v-14.9346389h-1.4381443z"/><path d="m53.5948454 24.2808323h-1.6298969-1.629897l-3.2597938 6.8410282v-6.8410282h-1.4381443-1.5340206v14.9346389h1.5340206 1.4381443v-7.9972582l3.2597938 7.9972582h1.629897 1.6298969l-3.2597939-8.3826683z"/><path d="m9.58762887 24.2808323h-1.53402062-1.62989691l-3.25979381 6.8410282v-6.8410282h-1.53402062-1.53402062v14.9346389h1.53402062 1.53402062v-7.9972582l3.25979381 7.9972582h1.62989691 1.6298969l-3.25979381-8.3826683z"/><path d="m14.6690722 24.2808323h-1.5340207-1.5340206v14.9346389h6.9030928v-1.1562301-1.0598776h-3.8350515z"/><path d="m64.5247423 24.2808323h-1.5340207-1.5340206v10.8878336c0 .77082-.0958763 1.2525826-.3835051 1.5416401-.2876289.2890575-.671134.4817625-1.2463918.4817625-.5752577 0-.9587629-.192705-1.2463917-.4817625-.1917526-.2890575-.3835052-.7708201-.3835052-1.5416401v-10.8878336h-1.5340206-1.5340206v10.6951285c0 1.4452877.3835051 2.6015178 1.1505154 3.2759853.7670104.7708201 1.9175258 1.0598776 3.4515464 1.0598776 1.5340207 0 2.6845361-.38541 3.4515464-1.0598776.7670103-.77082 1.1505155-1.8306976 1.1505155-3.2759853v-10.6951285z"/><path d="m76.1257732 24.2808323-2.3010309 11.3695961-2.3969072-11.3695961h-2.1092784-2.1092783v14.9346389h1.2463917 1.2463918v-12.5258262l2.5886597 12.5258262h1.5340207 1.5340206l2.5886598-12.5258262v12.5258262h1.2463917 1.1505155v-14.9346389h-2.1092784z"/><path d="m68.5515464 46.8273195v.192705l.671134.2890575c.4793815.192705.5752577.2890575.5752577.4817626v1.5416401.38541c-.3835051.0963525-.7670103.1927051-1.2463917.1927051-1.6298969 0-2.7804124-1.3489352-2.7804124-3.2759854 0-2.2161077 1.3422681-3.2759853 2.8762887-3.2759853.4793814 0 1.0546392.0963525 1.2463917.2890576.1917526.192705.3835052.8671725.5752578 1.3489351h.1917525c0-.2890575 0-.6744676 0-.9635251s0-.5781151 0-.8671726c-.4793814-.0963525-.9587628-.192705-1.5340206-.192705-2.013402 0-4.314433 1.2525826-4.314433 3.8541004 0 2.1197552 1.5340207 3.5650428 4.1226804 3.5650428.7670104 0 1.629897-.192705 2.1092784-.2890575 0-.192705 0-.3854101 0-.4817626v-1.7343451c0-.1927051 0-.3854101.1917526-.4817626l.671134-.2890575v-.192705c-.4793814 0-.9587629.0963525-1.4381443.0963525-.8628866-.0963525-1.4381444-.192705-1.9175258-.192705z"/><path d="m76.3175258 42.8768666c-2.2051547 0-3.643299 1.5416401-3.643299 3.7577478 0 1.8306977 1.1505155 3.6613954 3.4515464 3.6613954 2.2051546 0 3.5474227-1.7343452 3.5474227-3.9504529 0-2.0234027-1.2463918-3.4686903-3.3556701-3.4686903zm0 7.0337332c-1.6298969 0-2.3969072-1.5416402-2.3969072-3.8541004 0-1.5416402.8628866-2.8905753 2.3969072-2.8905753 1.8216495 0 2.3010309 1.7343452 2.3010309 3.6613954-.0958763 1.5416401-.671134 3.0832803-2.3010309 3.0832803z"/><path d="m86.0010309 49.5251897c-.0958763.0963525-.2876288.192705-1.4381443.192705-.4793814 0-1.0546392 0-1.5340206 0 0-.4817625-.0958763-.9635251-.0958763-1.5416401v-1.5416402h1.1505155c1.342268 0 1.4381443 0 1.5340206.2890576l.2876288.8671726h.1917526c0-.4817626 0-.8671726 0-1.3489352 0-.38541 0-.8671726 0-1.2525826h-.1917526l-.2876288.7708201c-.0958763.2890575-.1917526.2890575-1.5340206.2890575h-1.1505155v-1.3489351c0-.4817626 0-.8671726.0958763-1.2525826h1.5340206c1.2463918 0 1.342268 0 1.4381443.2890575l.2876289.8671726h.1917526c0-.2890576 0-.6744676 0-.7708201 0-.192705 0-.5781151 0-.8671726-.9587629 0-2.0134021.0963525-3.0680413.0963525-.8628866 0-1.7257732 0-2.5886598-.0963525v.192705l.9587629.2890576c.2876289.0963525.2876289.192705.2876289 1.2525826v4.0468054c0 .8671725 0 .8671725-.3835052.9635251l-.8628866.2890575v.192705c.7670103 0 1.8216495-.0963525 2.8762887-.0963525.671134 0 2.3010309 0 2.8762887.0963525v-.8671726c0-.2890575 0-.6744675.0958762-.9635251h-.1917525c-.1917526.4817626-.2876289.7708201-.4793815.9635251z"/><path d="m87.7268041 42.9732191v1.9270502h.1917526l.2876289-.8671726c.1917525-.38541.2876288-.38541 1.9175257-.38541v4.9139779c0 .5781151 0 .8671726-.0958762.9635251-.0958763.192705-.2876289.2890575-1.1505155.5781151v.192705c.4793814 0 1.0546392-.0963525 1.7257732-.0963525s1.1505154 0 1.7257732.0963525v-.192705c-.8628866-.2890576-1.0546392-.3854101-1.1505155-.5781151s-.0958763-.4817625-.0958763-.9635251v-4.9139779c1.6298969 0 1.8216495 0 1.9175258.38541l.2876289.8671726h.1917525v-1.9270502c-.9587628 0-1.9175257.0963525-2.8762886.0963525s-1.9175258 0-2.8762887-.0963525z"/><path d="m98.2731959 42.9732191v.192705l.8628866.2890575c.2876288.0963525.3835051.1927051.3835051.7708201v2.0234027h-3.2597938v-2.0234027c0-.578115 0-.6744676.3835052-.7708201l.8628866-.2890575v-.192705c-.5752578 0-1.1505155.0963525-1.7257732.0963525-.4793815 0-1.0546392 0-1.6298969-.0963525v.192705l.9587629.2890575c.2876288.0963525.2876288.1927051.2876288 1.2525827v4.0468053c0 .8671726 0 .8671726-.3835051.9635251l-.8628866.2890576v.192705c.5752577 0 1.1505154-.0963525 1.7257732-.0963525.3835051 0 1.1505154 0 1.6298969.0963525v-.192705l-.8628866-.2890576c-.2876289-.0963525-.2876289-.38541-.2876289-1.8306976v-1.3489352h3.2597938v1.3489352c0 1.4452876 0 1.7343451-.2876288 1.8306976l-.8628866.2890576v.192705c.4793814 0 1.2463917-.0963525 1.6298965-.0963525.575258 0 1.246392 0 1.725774.0963525v-.192705l-.862887-.2890576c-.287629-.0963525-.383505-.0963525-.383505-.9635251v-4.0468053c0-1.0598776 0-1.1562302.287629-1.2525827l.958763-.2890575v-.192705c-.575258 0-1.150516.0963525-1.629897.0963525-.7670107 0-1.2463921 0-1.9175261-.0963525z"/><path d="m107.47732 49.5251897c-.095877.0963525-.287629.192705-1.438145.192705-.479381 0-1.054639 0-1.53402 0 0-.4817625-.095877-.9635251-.095877-1.5416401v-1.5416402h1.150516c1.342268 0 1.438144 0 1.53402.2890576l.287629.8671726h.191753c0-.4817626 0-.8671726 0-1.3489352 0-.38541 0-.8671726 0-1.2525826h-.191753l-.287629.7708201c-.095876.2890575-.191752.2890575-1.53402.2890575h-1.150516v-1.3489351c0-.4817626 0-.8671726.095877-1.2525826h1.53402c1.246392 0 1.342268 0 1.438145.2890575l.287628.8671726h.191753c0-.2890576 0-.6744676 0-.7708201 0-.192705 0-.5781151 0-.8671726-.958763 0-2.013402.0963525-3.068041.0963525-.862887 0-1.725773 0-2.58866-.0963525v.192705l.958763.2890576c.287629.0963525.287629.192705.287629 1.2525826v4.0468054c0 .8671725 0 .8671725-.383505.9635251l-.862887.2890575v.192705c.76701 0 1.821649-.0963525 2.876289-.0963525.575257 0 2.301031 0 2.876288.0963525v-.8671726c0-.2890575 0-.6744675.095877-.9635251h-.191753c-.191753.4817626-.383505.7708201-.479381.9635251z"/><path d="m109.874227 47.020025h2.58866v1h-2.58866z"/><path d="m118.503093 42.9732191v.192705l.575258.192705c.287628.0963525.479381.192705.479381.3854101.095876.77082.095876 2.5051652.095876 3.9504528 0 1.3489352-.671134 2.0234027-1.821649 2.0234027-1.725773 0-2.109279-.9635251-2.109279-2.4088127 0-1.7343452 0-2.6978702 0-3.3723378 0-.3854101.095877-.4817626.767011-.6744676l.479381-.192705v-.192705c-.575258 0-1.150515.0963525-1.725773.0963525-.479381 0-1.054639 0-1.629897-.0963525v.192705l.76701.2890575c.287629.0963525.383506.3854101.383506 1.2525827v3.1796328c0 1.7343451 1.150515 2.4088127 2.780412 2.4088127s2.684536-.7708201 2.780412-2.9869278c0-2.0234027 0-2.8905753 0-3.5650428 0-.1927051.191753-.3854101.479382-.4817626l.479381-.192705v-.192705c-.479381 0-.862886.0963525-1.342268.0963525-.479381.192705-.958763.192705-1.438144.0963525z"/><path d="m126.652577 42.9732191v.192705l.767011.2890575c.287628.0963525.383505.1927051.479381.5781151v1.6379927 2.6978702l-3.163917-4.2395104c-.287629-.38541-.479382-.6744676-.671134-1.0598776-.287629 0-.671134.0963525-.958763.0963525-.383506 0-.671134 0-1.05464-.0963525v.192705c.383506.0963525.671134.192705 1.05464.3854101l.191752.192705v2.2161077c0 1.4452876-.095876 3.0832803-.095876 3.4686903 0 .0963525-.095876.192705-.287629.2890575l-.862887.2890576v.192705c.479382 0 .958763-.0963525 1.438145-.0963525.479381 0 .958763 0 1.438144.0963525v-.192705l-.76701-.192705c-.287629-.0963526-.383505-.1927051-.479382-.3854101 0-.192705-.095876-2.4088127-.095876-3.8541003v-1.3489352l2.301031 3.0832803c.76701 1.0598776 1.534021 2.0234027 2.205155 3.0832803h.287629c0-1.2525826 0-2.6015177 0-2.9869278 0-.6744675.095876-2.6015177.095876-3.5650428 0-.192705.095876-.2890575.383505-.3854101l.76701-.2890575v-.192705c-.479381 0-1.054639.0963525-1.53402.0963525-.575258-.0963525-1.05464-.0963525-1.438145-.192705z"/><path d="m130.008247 42.9732191v.192705l.958763.2890575c.191753.0963525.191753.1927051.287629 1.2525827v2.0234027 2.0234026c0 .8671726 0 .9635251-.287629 1.0598776l-.862886.2890576v.192705c.479381 0 1.150515-.0963525 1.725773-.0963525.479381 0 1.150515 0 1.629897.0963525v-.192705l-.862887-.2890576c-.287629-.0963525-.287629-.192705-.287629-1.0598776 0-.6744675 0-1.3489351 0-2.0234026 0-.6744676 0-1.3489352 0-2.0234027 0-1.0598776 0-1.1562302.287629-1.2525827l.958763-.2890575v-.192705c-.575258 0-1.054639.0963525-1.629897.0963525-.862886 0-1.438144 0-1.917526-.0963525z"/><path d="m138.637113 42.9732191v.192705c.479382.192705.862887.2890575.862887.38541 0 .0963526 0 .2890576-.095876.4817626-.383505 1.2525826-1.054639 2.8905753-1.725773 4.5285679-.479382-1.1562301-1.917526-4.6249204-1.917526-4.9139779 0-.0963526.095876-.1927051.575257-.2890576l.383506-.0963525v-.192705c-.479382 0-.958763.0963525-1.438145.0963525-.479381 0-1.054639 0-1.53402-.0963525v.192705l.287629.0963525c.383505.0963525.479381.192705.575257.5781151.671134 1.6379926 1.82165 4.4322154 2.58866 6.4556181h.287629c1.054639-2.7942228 1.917526-5.0103305 2.58866-6.5519706.191752-.3854101.287629-.4817626.76701-.5781151v-.192705c-.287629 0-.671134.0963525-1.054639.0963525-.287629-.0963525-.671134-.0963525-1.150516-.192705z"/><path d="m146.690722 49.5251897c-.095877.0963525-.287629.192705-1.438145.192705-.479381 0-1.054639 0-1.53402 0 0-.4817625-.095877-.9635251-.095877-1.5416401v-1.5416402h1.150516c1.342268 0 1.438144 0 1.53402.2890576l.287629.8671726h.191753c0-.4817626 0-.8671726 0-1.3489352 0-.38541 0-.8671726 0-1.2525826h-.191753l-.287629.7708201c-.095876.2890575-.191752.2890575-1.53402.2890575h-1.150516v-1.3489351c0-.4817626 0-.8671726.095877-1.2525826h1.53402c1.246392 0 1.342268 0 1.438145.2890575l.287629.8671726h.191752c0-.2890576 0-.6744676 0-.7708201 0-.192705 0-.5781151 0-.8671726-.958763 0-2.013402.0963525-3.068041.0963525-.862887 0-1.725773 0-2.58866-.0963525v.192705l.958763.2890576c.287629.0963525.287629.192705.287629 1.2525826v4.0468054c0 .8671725 0 .8671725-.383505.9635251l-.862887.2890575v.192705c.76701 0 1.82165-.0963525 2.876289-.0963525.575257 0 2.301031 0 2.876288.0963525v-.8671726c0-.2890575 0-.6744675.095877-.9635251h-.191753c-.191752.4817626-.383505.7708201-.479381.9635251z"/><path d="m154.073196 48.8507222-1.534021-2.3124603c1.054639-.192705 1.82165-.6744675 1.82165-1.8306976 0-1.1562302-.958763-1.7343452-2.396907-1.7343452-.767011 0-1.438145.0963525-2.013403.0963525-.575257 0-1.150515 0-1.53402-.0963525v.192705l.958763.2890575c.287629.0963525.287629.1927051.287629 1.2525827v4.0468053c0 .8671726 0 .8671726-.383506.9635251l-.862886.2890576v.192705c.575258 0 1.150515-.0963525 1.725773-.0963525.383505 0 1.150516 0 1.629897.0963525v-.192705l-.862887-.2890576c-.287629-.0963525-.287629-.38541-.287629-1.8306976v-1.2525827h.862887c.671134.8671726 1.725773 2.3124603 2.396907 3.5650429h.862887.76701v-.192705c-.76701-.0963525-.76701-.1927051-1.438144-1.1562301zm-2.780412-2.6015178h-.767011v-2.7942228h1.054639c1.05464 0 1.725774.3854101 1.725774 1.4452877 0 1.2525826-.958763 1.3489351-2.013402 1.3489351z"/><path d="m157.620619 44.6112118c0-.7708201.671134-1.2525827 1.342268-1.2525827.383505 0 .76701.0963525 1.150515.192705l.479382 1.2525827h.095876l.095876-1.5416402c-.479381-.192705-1.150515-.38541-1.629897-.38541-1.246392 0-2.492783.6744675-2.492783 2.0234027 0 2.1197552 3.451546 1.9270502 3.451546 3.5650428 0 1.0598776-.76701 1.4452877-1.725773 1.4452877-.287629 0-.76701-.0963526-1.150516-.2890576l-.383505-1.4452876h-.191752l-.191753 1.8306977c.671134.2890575 1.150516.2890575 1.629897.2890575 2.205155 0 2.876289-1.1562301 2.876289-2.1197552.191752-2.2161077-3.35567-1.8306977-3.35567-3.5650428z"/><path d="m162.22268 42.9732191v.192705l.958763.2890575c.191753.0963525.191753.1927051.287629 1.2525827v2.0234027 2.0234026c0 .8671726 0 .9635251-.287629 1.0598776l-.862886.2890576v.192705c.479381 0 1.150515-.0963525 1.725773-.0963525.479381 0 1.150515 0 1.629897.0963525v-.192705l-.862887-.2890576c-.287629-.0963525-.287629-.192705-.287629-1.0598776 0-.6744675 0-1.3489351 0-2.0234026 0-.6744676 0-1.3489352 0-2.0234027 0-1.0598776 0-1.1562302.287629-1.2525827l.958763-.2890575v-.192705c-.575258 0-1.054639.0963525-1.629897.0963525-.76701 0-1.342268 0-1.917526-.0963525z"/><path d="m171.906186 42.9732191c-.958763 0-1.917526.0963525-2.876289.0963525s-1.917526 0-2.876289-.0963525v1.9270502h.191753l.287629-.8671726c.191752-.38541.287629-.38541 1.917525-.38541v4.9139779c0 .5781151 0 .8671726-.095876.9635251-.095876.192705-.287629.2890575-1.150515.5781151v.192705c.479381 0 1.054639-.0963525 1.725773-.0963525s1.150515 0 1.725773.0963525v-.192705c-.862886-.2890576-1.054639-.3854101-1.150515-.5781151-.095877-.192705-.095877-.4817625-.095877-.9635251v-4.9139779c1.629897 0 1.82165 0 1.917526.38541l.287629.8671726h.191753z"/><path d="m174.590722 42.395104c.287629 0 .575257-.2890575.575257-.578115s-.287628-.4817626-.575257-.4817626-.479382.2890576-.479382.4817626c-.095876.2890575.191753.578115.479382.578115z"/><path d="m177.371134 41.816989c0-.2890575-.287629-.4817626-.575258-.4817626s-.479381.2890576-.479381.4817626c0 .2890575.287629.578115.479381.578115.287629 0 .575258-.2890575.575258-.578115z"/><path d="m175.837113 42.7805141h-.287628c-.767011 2.0234027-2.013403 4.6249204-2.972165 6.8410281-.287629.192705-.575258.2890576-.862887.3854101v.192705c.383505 0 .862887-.0963525 1.246392-.0963525.479381 0 .862886 0 1.342268.0963525v-.192705l-.958763-.3854101c.191752-.578115.287629-1.2525826.671134-1.8306976h1.438144 1.438145c.191752.2890575.479381 1.3489351.671134 1.8306976-.287629.0963525-.767011.2890576-1.05464.3854101v.192705c.479382 0 .958763-.0963525 1.534021-.0963525s1.150516 0 1.725773.0963525v-.192705l-.958763-.2890576c-1.054639-2.3124602-2.109278-4.6249204-2.972165-6.9373806zm-1.725773 4.6249204 1.246392-2.9869278 1.246392 2.9869278z"/><path d="m179.480412 42.9732191v1.9270502h.191753l.287629-.8671726c.191752-.38541.287629-.38541 1.917526-.38541v4.9139779c0 .5781151 0 .8671726-.095877.9635251-.095876.192705-.287629.2890575-1.150515.5781151v.192705c.479381 0 1.054639-.0963525 1.725773-.0963525s1.150515 0 1.725773.0963525v-.192705c-.862886-.2890576-1.054639-.3854101-1.150515-.5781151-.095877-.192705-.095877-.4817625-.095877-.9635251v-4.9139779c1.629897 0 1.82165 0 1.917526.38541l.287629.8671726h.191753v-1.9270502c-.958763 0-1.917526.0963525-2.876289.0963525s-1.917526 0-2.876289-.0963525z"/><path d="m95.0134021 26.49694v-1.0598776-1.1562301h-7.0948454v14.9346389h1.5340206 1.5340206v-6.4556181h3.8350516v-1.0598776-1.1562301h-3.8350516v-4.0468054z"/><path d="m106.135052 28.2312852c0-1.3489351-.383506-2.4088127-1.05464-2.9869278-.671134-.578115-1.821649-.8671726-3.35567-.8671726h-2.9721647-1.5340206v14.8382864h1.5340206 1.5340207v-6.070208h.862887c.76701 0 1.246391.192705 1.53402.4817625s.479382.8671726.383505 1.5416402v1.8306976 1.4452877c0 .2890575.095877.578115.095877.77082h1.53402 1.534021c-.095876-.192705-.095876-.38541-.095876-.77082 0-.2890576-.095877-.8671726-.095877-1.4452877 0-.578115 0-1.2525826 0-1.8306976.095877-.9635251-.095876-1.8306977-.575257-2.3124603-.383506-.578115-1.05464-.77082-1.917526-.77082.671134-.1927051 1.246392-.3854101 1.629897-.6744676.671134-.5781151.958763-1.6379927.958763-3.1796328zm-3.355671 2.2161077c-.287628.2890575-.76701.4817625-1.53402.4817625h-.862887v-4.3358629h.862887c.76701 0 1.246392.1927051 1.53402.4817626.287629.2890575.383506.8671726.383506 1.6379926 0 .8671726-.191753 1.4452877-.383506 1.7343452z"/><path d="m111.504124 35.9394859h3.259794l.575257 3.1796328h1.438145 1.438144l-3.35567-14.8382864h-1.82165-1.725773l-3.35567 14.8382864h1.438144 1.438145zm1.629897-8.8644308 1.246391 6.6483231h-2.396907z"/><path d="m127.515464 24.2808323v12.6221787l-2.58866-12.6221787h-2.205155-2.30103v14.9346389h1.246391 1.246392v-12.7185312l2.58866 12.7185312h2.205154 2.205155v-14.9346389h-1.246392z"/><path d="m134.226804 24.2808323h-1.438144v14.9346389h1.53402 1.438145v-7.9972582l3.259794 7.9972582h1.629896 1.629897l-3.259793-8.3826683 3.259793-6.5519706h-1.629897-1.629896l-3.259794 6.8410282v-6.8410282z"/><path d="m151.196907 26.49694v-1.0598776-1.1562301h-7.094845v14.9346389h1.53402 1.534021v-6.4556181h3.835052v-1.0598776-1.1562301h-3.835052v-4.0468054z"/><path d="m162.702062 24.2808323h-1.534021-1.53402v10.8878336c0 .77082-.095877 1.2525826-.383506 1.5416401-.287628.2890575-.671134.4817625-1.246391.4817625-.575258 0-.958763-.192705-1.246392-.4817625-.191753-.2890575-.383505-.7708201-.383505-1.5416401v-10.8878336h-1.534021-1.53402v10.6951285c0 1.4452877.383505 2.6015178 1.150515 3.2759853.76701.7708201 1.917526 1.0598776 3.451546 1.0598776 1.534021 0 2.684537-.38541 3.451547-1.0598776.76701-.77082 1.150515-1.8306976 1.150515-3.2759853v-10.6951285z"/><path d="m174.207216 28.2312852c0-1.3489351-.383505-2.4088127-1.054639-2.9869278-.671134-.578115-1.821649-.8671726-3.35567-.8671726h-2.972165-1.53402v14.8382864h1.53402 1.534021v-6.070208h.862886c.767011 0 1.246392.192705 1.534021.4817625s.479382.8671726.383505 1.5416402v1.8306976 1.4452877c0 .2890575.095877.578115.095877.77082h1.53402 1.534021c-.095877-.192705-.095877-.38541-.095877-.77082 0-.2890576-.095876-.8671726-.095876-1.4452877 0-.578115 0-1.2525826 0-1.8306976 0-.9635251-.095876-1.8306977-.575258-2.3124603-.383505-.578115-1.054639-.77082-1.917525-.77082.671134-.1927051 1.246391-.3854101 1.629897-.6744676.671134-.5781151.958762-1.6379927.958762-3.1796328zm-3.35567 2.2161077c-.287628.2890575-.76701.4817625-1.53402.4817625h-.862887v-4.3358629h.862887c.76701 0 1.246392.1927051 1.53402.4817626.287629.2890575.383506.8671726.383506 1.6379926 0 .8671726-.191753 1.4452877-.383506 1.7343452z"/><path d="m175.837113 25.4370624v1.0598776h3.163918v12.7185312h1.534021 1.53402v-12.7185312h3.163918v-1.0598776-1.1562301h-9.395877z"/></g><path d="m.095876 52.130722h185.137113v1h-185.137113z"/><g transform="translate(127.515464)"><path d="m19.5587629 22.0687393c.0958763 0 .2876289-.0963525.3835051-.0963525.4793815 0 .3835052 1.4452876 1.4381444 1.4452876.2876288 0 .3835051 0 .5752577-.4817625-.671134-.0963525-.9587629-.6744676-.9587629-1.1562301 0-.1927051.3835052-.8671726.7670103-.8671726.0958763 0 .0958763.0963525.1917526.0963525 0 .0963525.0958763 0 .0958763.192705 0 .5781151-.2876289.6744676.2876289 1.2525826.0958762.192705.7670103.3854101 1.0546391.3854101.4793815 0 1.1505155-.6744676 1.2463918-1.2525827 0-.192705-.1917526-.6744675.0958763-.8671725.1917526 0 .7670103.38541.7670103.6744675 0 .2890576-.4793815.8671726-.671134 1.2525826l.0958763.0963526c.1917525.0963525.4793814 0 .4793814 0 .0958763 0 .7670103-.6744676.8628866-.6744676.1917526 0 .1917526.192705.1917526.38541 0 1.0598776-.6711341 1.1562301-.6711341 1.9270502 0 .4817626.8628866 1.9270502 1.1505155 1.9270502.2876289-.38541.2876289-.8671726.2876289-1.1562301 0-.0963525-.2876289-1.4452877-.2876289-1.8306977 0-.4817625.3835052-2.0234027.3835052-2.2161077 0-.2890575-.1917526-1.1562301-.2876289-1.2525826-.5752577-.7708201-1.6298969-1.4452877-2.3969072-1.7343452-.3835052-.192705-.9587629-.2890575-1.4381443-.2890575-.0958763 0-.0958763.0963525-.5752578 0-2.2051546.0963525-3.8350515 1.2525826-3.8350515 3.2759853 0 .0963525 0 .38541.1917526.5781151.0958762.0963525.3835051.38541.5752577.38541zm3.643299-.2890575c-.3835052 0-.4793815-.2890576-.4793815-.4817626 0-.38541.1917526-.4817625.4793815-.4817625.3835051 0 .3835051.38541.3835051.4817625 0 .192705-.1917526.4817626-.3835051.4817626zm-2.1092784-3.0832803c.1917526-.0963525.4793814-.0963525.7670103-.192705h.8628866c.5752577.0963525 1.8216495.6744675 1.8216495 1.4452876 0 .0963525 0 .2890575-.1917526.2890575-.0958763 0-.4793814-.38541-.671134-.38541h-.3835052v.0963525c0 .0963525.0958763.0963525.0958763.2890575 0 .0963525-.0958763.0963525-.0958763.192705-.5752577-.0963525-.9587628.0963525-1.6298969.1927051 0-.1927051 0-.3854101 0-.4817626-.0958763 0 0 0-.1917525 0-.4793815 0-.7670103.8671726-1.2463918.8671726-.3835051 0-.4793814-.2890575-.4793814-.4817626 0-.6744675.7670103-1.5416401 1.342268-1.8306976z"/><path d="m55.4164948 47.5058017c-1.7257732-1.5416401-6.8072164-3.7577478-9.7793814-5.106683-1.342268-.578115-2.2051546-.9635251-2.5886598-1.2525826-.1917526-.0963525-.4793814-.2890575-.4793814-.6744676 0-.0963525 0-.192705.5752577-1.5416401v-.0963525c.4793814-1.0598776.8628866-1.8306977 1.1505155-2.6015178.9587628-2.0234027 1.342268-2.8905752.9587628-3.5650428-.3835051-.7708201-2.013402-1.6379927-4.6979381-3.0832803l-.2876289-.192705v-.2890575c0-.2890576.2876289-.7708201 1.0546392-1.8306977l.1917526-.2890575.2876289.0963525c.3835051.0963525.671134.192705.9587628.2890575 1.7257732.5781151 2.5886598.8671726 3.8350516-.9635251.7670103-1.0598776.7670103-2.6978703.4793814-3.8541004-.2876288-1.0598776-.3835051-1.1562301-1.2463917-1.8306976l-.1917526-.1927051c-.1917526-.0963525-.4793814-.38541-.4793814-.77082 0-.5781151.1917525-1.0598776.3835051-1.5416402.1917526-.578115.3835052-1.2525826.3835052-1.8306977v-.2890575c-.0958763-1.5416401-.4793815-5.492093-2.1092784-5.877503l-.1917526-.0963525-.2876288-.67446761.0958763-.19270502c.8628866-1.92705018-.1917526-4.43221542-1.8216495-5.68479804-1.0546392-.86717259-2.2051547-1.0598776-3.0680413-.48176255l-.4793814.38541004v-.48176255c-.2876289-.67446756-.5752577-1.0598776-.9587629-1.25258262-.3835051-.09635251-.9587629 0-1.5340206.48176255l-.3835052.28905753-.4793814-.77082008c-.9587629-1.25258262-1.5340206-1.73434516-2.8762887-1.63799265-2.1092783.09635251-4.6979381.38541003-6.6154639 1.34893513l-.2876288.0963525-.2876289-.19270501c-1.6298969-1.25258262-4.0268041-1.0598776-6.9989691.67446756-1.1505155.67446756-1.342268 1.73434517-1.5340206 2.50516524-.0958763.48176255-.1917526.77082007-.4793814.96352509l-.2876289.09635251c-1.8216495.96352509-3.5474227 1.83069767-3.4515464 3.95045288 0 1.0598776-.4793814 1.4452876-.8628866 1.7343452-.2876289.192705-.4793814.38541-.5752577.77082 0 .0963525-.0958763.4817626 0 .7708201 0 .7708201.0958763 1.4452876.2876288 2.1197552.0958763.38541.1917526.8671726.1917526 1.2525826.0958763.5781151-.2876289.9635251-.5752577 1.3489352-.57525776.578115-1.24639178 1.4452876.2876288 4.4322154l.0958763.2890575-.1917525.192705c-.95876293 1.4452877-1.43814438 3.8541004-.67113407 5.3957405.47938147.8671726 1.24639177 1.3489352 2.49278347 1.3489352.9587629 0 1.8216495-.5781151 2.3969073-.9635251.3835051-.2890575.5752577-.3854101.8628866-.3854101h.2876288l.0958763.1927051c.2876289.4817625.5752577.8671725.9587629 1.3489351l.0958763.192705v.192705c0 .3854101-.2876289.5781151-1.3422681 1.3489352-1.1505154.8671725-3.2597938 2.4088127-3.1639175 3.3723378 0 .38541.9587629 1.9270502 1.5340206 2.9869278.8628866 1.3489351 1.3422681 2.2161077 1.4381444 2.6978702l.1917525.5781151-.3835051.192705c-1.9175258 1.0598776-3.7391753 1.8306977-5.56082476 2.6015177-5.36907216 2.4088128-9.3 4.1431579-9.68350515 8.6717259h57.81340211c-.2876289-1.1562301-.8628866-3.2759853-2.4927836-4.721273zm-22.2432989-41.14252141c.1917526-.86717258.4793814-1.34893512 1.1505154-1.83069767.1917526-.19270502 1.7257732-.86717258 2.1092784-.86717258.0958763 0 .1917526 0 .3835051.09635251l.0958763.19270501-.0958763.19270502c-.5752577.19270502-1.9175257 2.0234027-2.013402 2.31246022-.0958763.38541004-.1917526.86717259-.1917526.96352509 0 .19270502.0958763.48176255.2876289.48176255.0958763 0 .671134-.19270502.8628866-.28905753.4793814-.09635251 1.4381443-.28905752 1.5340206-.28905752.9587629 0 2.3969072.86717258 2.3969072 1.73434516 0 .09635251 0 .38541004-.0958763.48176255-.0958763.19270502-.3835051-.28905753-.5752577-.38541004-.2876289-.09635251-.7670103-.28905753-.8628866-.28905753-1.3422681 0-1.5340206.96352509-2.4927835.96352509-.3835052 0-.7670103 0-1.1505155-.57811505-.1917526-.28905753-.0958763-.77082007-.2876288-1.15623011-.0958763-.19270502-.3835052-.38541004-.5752578-.48176255-.0958763-.19270502-.2876288-.38541003-.3835051-.67446756-.0958763-.09635251-.0958763-.28905753-.0958763-.57811506zm-18.5041237 18.11427171c0 .192705-1.2463918 1.6379927-1.4381444 1.8306977-.0958763.0963525-.2876288.192705-.4793814.192705-.1917526.0963525-.4793815.0963525-.671134.0963525-.671134 0-1.1505155-.9635251-1.1505155-1.3489351 0-.4817626.1917526-1.1562301.3835052-1.6379927.1917525 0 .3835051 0 .5752577.0963525.1917526.2890576 0 .9635251.4793814 1.2525827.0958763 0 .1917526.0963525.3835052.0963525.671134 0 1.1505155-1.0598776 1.2463917-1.0598776.0958763 0 .3835052.192705.6711341.192705 0 0 .0958763.192705 0 .2890575zm.9587629-13.0075887c-.3835052 0-.6711341-.2890575-.6711341-.5781151 0-.0963525 0-.2890575.0958763-.38541 0-.0963525.3835052-.77082008.5752578-1.05987761 1.0546391-1.25258262 2.3969072-2.40881273 3.9309278-3.27598531.2876289-.09635251.671134-.09635251.9587629-.19270502.0958763-.09635251 1.1505154-.77082008 1.1505154-1.0598776 0-.09635251-.2876288-.38541004-.4793814-.38541004 0 0-1.7257732.09635251-1.8216495.09635251 0 0-.0958763-.09635251-.0958763-.19270502 0-.28905753.3835052-.38541004.4793815-.57811505.4793814-.38541004 1.6298969-.86717259 2.013402-.86717259.0958763 0 .3835052.09635251.4793815.09635251s.8628866.28905753 1.1505154.48176255c.2876289.19270502.5752578.38541003.8628866.57811505.3835052.19270502 1.2463918.28905753 1.3422681.28905753.2876288 0 1.7257732-.28905753 1.7257732-.28905753.5752577 0 1.9175257.86717259 2.3010309 1.34893513.0958763.19270502.1917526.57811506.1917526.77082007 0 .09635251-.0958763.57811506-.0958763.67446757 0 .28905753-.3835052.67446756-.5752577.67446756-.2876289 0-.6711341-1.25258262-.7670104-1.34893513-.4793814-.57811505-2.1092783-1.44528763-2.9721649-1.44528763-.0958763 0-.5752577 0-.5752577.38541003 0 .67446757 1.6298969.86717259 1.6298969 1.54164015 0 .19270502-.3835052.38541004-.4793815.38541004-.3835051 0-1.4381443-.86717259-1.5340206-.86717259-.5752577-.19270501-1.1505155-.38541003-1.7257732-.48176254-.671134 0-.7670103 0-.8628866 0-.9587629.28905753-1.8216495 1.15623011-2.3969072 2.02340269-.1917526.19270502-.1917526.77082007-.2876289.77082007s-.671134-.19270501-.8628866-.19270501c-1.2463917 0-1.6298969.86717258-1.6298969 1.92705021 0 .2890575-.1917526.6744675-.3835051.8671726-.0958763.0963525-.4793815.2890575-.671134.2890575zm1.2463917 16.7653366c-.0958763-.0963525-.2876289-.3854101-.2876289-.5781151-.0958763-.38541-.0958763-1.1562301-.0958763-1.2525826 0-1.5416401 1.1505155-.6744676 1.2463918-2.3124602l-.1917526-5.3957405c0-1.2525827.9587629-2.3124603 1.3422681-3.7577479.0958763-.2890575 0-.7708201 0-.9635251 0-3.0832803 1.5340206-5.3957405 4.6979381-5.58844551.7670103-.09635251 2.1092784-.28905753 2.3010309-.28905753 1.5340207 0 2.3969073.96352509 3.8350516.96352509.0958763 0 2.3969072-.19270502 2.5886598-.19270502.9587629 0 2.3010309 1.15623007 2.3969072 2.31246027 0 .192705.0958763.4817625.0958763.6744675 0 .0963525-.2876289 1.7343452-.2876289 1.9270502 0 1.4452876 1.6298969 2.5051652 1.6298969 3.7577479 0 .38541-.1917526 1.0598776-.4793814 1.2525826-.1917526 0-.671134-.3854101-.7670103-.4817626-.4793815-.192705-1.3422681-.38541-1.4381444-.38541-1.4381443 0-3.1639175.9635251-3.9309278 1.6379927-.3835051.38541-.4793814 1.4452876-.4793814 1.9270501 0 1.0598776.4793814 1.9270502.4793814 2.9869278 0 .0963525-.1917526 2.0234027-.1917526 2.0234027v.4817626.0963525c0 .0963525.2876289 1.1562301.2876289 1.2525826 0 .6744676-.3835052 1.2525826-1.1505155 1.2525826-.3835051 0-.7670103-.2890575-.7670103-.6744676 0-.38541-.2876288-.963525-.4793814-1.0598776-.0958763-.0963525-.1917526-.0963525-.2876289-.0963525s-.671134.5781151-.9587629.8671726c-.2876288-.192705-.1917526-.4817625-.4793814-.4817625-.3835052 0-.3835052.4817625-.3835052.4817625 0 .4817626.671134 1.1562301 1.1505155 1.1562301.1917526 0 .9587629-.38541 1.0546392-.38541.3835051 0 .671134.7708201.7670103.8671726s.3835051.192705.4793814.192705.4793815-.38541.671134-.38541c.4793815 0 .7670104.0963525 1.3422681.192705.1917526 0 .4793814.0963525.671134-.2890576.0958763-.192705.0958763-.192705.1917526-.38541.0958763-.0963525.1917526-.192705.3835051-.2890575.1917526-.0963525.6711341-.7708201.6711341-.9635251 0-1.1562301-.8628866-.7708201-.8628866-2.1197552v-.8671726c0-.0963525-.3835052-1.6379927-.3835052-1.7343452 0-.4817625.9587629 0 .9587629-.6744675 0-.192705-.9587629-.7708201-.9587629-1.0598776 0-.3854101.9587629-.7708201 1.0546392-.8671726.1917526.192705.0958763.0963525.0958763.2890575 0 .5781151.1917525 1.1562301.9587629 1.4452877.0958762 0 .2876288.0963525.4793814.0963525.0958763 0 .4793814-.0963525.671134-.2890576.3835052-.2890575.5752577-.9635251.4793815-1.4452876 0 0 0-.0963525.0958762-.0963525.3835052 0 .7670104.4817625.7670104.578115 0 .4817626-.6711341 1.4452877-1.1505155 1.5416402-.3835052.0963525-.7670103.0963525-1.1505155.2890575-.0958763.192705 0 .192705 0 .192705.2876289.1927051.4793815.0963525.4793815.3854101 0 .0963525-.2876289.38541-.2876289.578115 0 .3854101.2876289.4817626.4793815.4817626.4793814 0 1.7257731-.7708201 2.013402-1.3489352.0958763-.2890575.0958763-.8671725.0958763-.963525 0-.2890576.2876289-.7708201.3835052-.7708201.1917525-.0963525.5752577.192705.671134.4817625.0958763.2890576.0958763.8671726.0958763.9635251 0 1.0598776-.5752578 1.8306977-.4793815 2.8905753.0958763.9635251-.0958763 1.5416401-.0958763 1.7343452 0 .0963525-.0958763.77082-.2876288 1.1562301 0 .192705-2.1092784 4.0468054-2.8762887 4.0468054h-.671134c-.0958763 0-.1917526-.0963526-.1917526-.1927051-.0958763-.0963525-.1917526-.2890575-.1917526-.4817625s.0958763-.38541 0-.4817626c-.0958763-.192705-.2876288-.4817625-.3835051-.4817625-.5752578 0-.9587629.4817625-1.2463918.4817625-.2876288 0-.8628866-.6744675-1.4381443-.6744675-.7670103 0-.8628866.9635251-1.4381443.9635251-.5752578 0-.6711341-.9635251-1.4381444-.9635251-.671134 0-.5752577.6744675-1.4381443.6744675-.0958763 0-.671134-.38541-.7670103-.38541-.5752577 0-.671134.8671726-.671134.9635251.0958763 0 .0958763.192705.2876288.192705.1917526 0 .5752578-.38541.7670104-.38541.1917525 0 .8628865.6744675 1.0546391.6744675.2876289 0 1.1505155-.4817625 1.3422681-.4817625.1917525 0 .7670103.2890575.8628866.2890575.5752577 0 1.1505154-.4817625 1.7257732-.4817625.3835051 0 1.1505154.2890575 1.1505154.7708201 0 .8671725-.7670103 1.1562301-1.342268 1.1562301-.0958763 0-1.7257732-.3854101-1.8216495-.3854101-.2876289 0-1.5340206.0963525-1.5340206.5781151 0 .38541.8628866.578115.9587629.578115.2876288 0 1.342268-.192705 1.4381443-.192705.7670103 0 2.1092783.192705 2.1092783 1.3489351 0 1.3489352-1.4381443 1.9270502-2.3010309 1.9270502h-2.2051546c-1.4381443 0-5.2731959-3.7577478-5.5608248-4.0468054h-.0958762v.0963526c.0958762.192705.1917525.38541.2876288.6744675.0958763.0963525.1917526.2890575.1917526.3854101.3835051.6744675.7670103 1.4452876 1.342268 2.1197552.5752578.77082 1.7257732 1.6379926 2.4927835 2.2161077 1.0546392.6744675 2.3969073 1.0598776 3.4515464 1.0598776.1917526 0 .3835052 0 .5752578.0963525.0958763.0963525.1917525.192705.1917525.38541 0 .7708201-2.3969072 3.7577479-3.3556701 4.0468054-.0958763 0-.0958763 0-.1917525 0-.4793815 0-1.0546392-.5781151-1.5340207-.8671726-1.342268-.8671726-2.684536-2.4088127-3.5474226-3.7577478-.3835052-.7708201-1.3422681-2.3124603-1.3422681-3.0832803 0-.0963525.0958763-.4817626.0958763-.6744676 0-.0963525.4793815-1.8306977.4793815-2.0234027 0-.0963525.4793814-1.3489351.5752577-1.6379926 0-.0963526-.2876289-.6744676-.4793815-.9635251-.0958762-.1927051-.1917525-.3854101-.2876288-.6744676-.0958763-.192705-.5752578-1.7343452-.671134-2.5051652-.0958763-.3854101.1917525-1.1562301-.0958763-1.2525827-.2876289.0963526-.4793815.8671726-.9587629.8671726-.4793815-.192705-1.0546392-.4817625-1.0546392-.4817625zm17.8329897-7.8045533c-.0958763.0963525-.0958763.0963525-.1917526.0963525s-.671134-.2890575-1.0546392-.2890575c-.5752577 0-1.342268.4817626-1.5340206.4817626-.0958763 0-.2876288-.1927051-.2876288-.2890576 0-.6744675 1.0546391-.4817625 1.0546391-1.0598776 0-.2890575.6711341-.38541.6711341-.38541.0958762 0 .3835051-.0963525.5752577-.0963525.0958763 0 .2876289.0963525.4793814.0963525.4793815.0963525 1.4381444.5781151 1.4381444 1.1562301 0 .0963525-.0958763.38541-.1917526.6744676-.2876289-.192705-.5752578-.5781151-.8628866-.8671726h-.1917526c0 .0963525-.0958763 0-.0958763.0963525.0958763.2890575.0958763.2890575.1917526.38541zm-.671134.9635251c0 .192705-.2876289.4817626-.4793815.4817626-.2876288 0-.4793814-.3854101-.4793814-.5781151 0-.0963525.1917526-.4817625.3835051-.4817625.3835052 0 .5752578.2890575.5752578.578115zm-3.4515464 5.9738556c.5752577.192705.8628866.38541.8628866.9635251 0 .4817625-.3835052.8671726-.7670103.8671726-.0958763 0-.1917526 0-.1917526-.0963525v-.2890576c0-.0963525.1917526-.38541.1917526-.578115s-.0958763-.2890575-.0958763-.8671726zm-9.3 21.8720196c-.0958763.0963525 0 .0963525-.1917526.0963525-.0958763 0-.5752577 0-.8628866-.2890575-.2876289-.2890576-4.314433-6.3592656-4.314433-7.1300857 0-.0963525.0958763-.3854101.2876289-.3854101.3835051 0 .9587629 1.1562302 1.1505154 1.4452877.0958763.192705 1.2463918 1.8306977 1.5340207 2.3124602.671134 1.0598776 2.3969072 3.3723378 2.3969072 3.5650428 0 0 .0958763.2890576 0 .3854101zm4.0268041-.5781151c-.2876289 0-1.1505155-.38541-1.4381443-.578115-2.5886598-1.3489352-3.7391753-4.4322155-4.4103093-6.6483232 0 0-.0958763-.38541.0958763-.38541h.2876289c1.2463917 1.6379927 2.3969072 3.4686903 4.1226804 4.3358629.2876288.192705.7670103.2890575.9587629.5781151.3835051.38541 1.1505154 1.7343451 1.1505154 2.2161077-.0958763.4817625-.671134.4817625-.7670103.4817625zm3.0680412.5781151c-1.342268 0-2.013402-2.2161077-2.013402-2.9869278 0-.6744676.2876288-1.0598776.8628866-1.0598776.0958763 0 1.0546392.38541 1.2463917.38541.5752578 0 .6711341-.578115.6711341-.8671726 0-.0963525-.0958763-.578115-.0958763-.77082 0-.3854101.1917525-.6744676.4793814-.6744676.4793815.0963525.5752577 1.0598776.5752577 1.3489351 0 .4817626-.3835051 2.1197552-1.1505154 2.1197552-.0958763 0-.3835052-.0963525-.4793815-.0963525-.3835051 0-1.0546391.6744676-1.0546391.9635251 0 .4817626.7670103.4817626 1.4381443.5781151h.7670103c.5752577-.4817626.3835052-1.3489352.9587629-1.8306977.0958763-.0963525.1917526-.0963525.4793814-.0963525h.1917526s.671134 1.0598776.671134 1.3489351c-.0958763.9635251-3.0680412 1.6379927-3.5474227 1.6379927zm2.4927835-5.492093c-.3835051-.5781151-.671134-1.1562302-.8628865-1.6379927-.1917526-.38541-.4793815-.8671726-.4793815-1.0598776s.2876289-.38541.3835052-.38541 1.4381443-.1927051 1.9175257-.4817626c2.2051547-.9635251 4.985567-2.6015177 5.8484536-5.106683.0958763-.192705.1917526-.2890575.3835052-.38541.1917526.0963525.1917526.0963525.2876289.2890575.2876288 1.1562301.5752577 3.5650429.5752577 3.6613954 0 .6744675-.5752577 1.8306976-.8628866 2.4088127-.3835052.6744676-1.2463918 1.8306977-1.9175258 2.3124602-.0958763.0963525-2.3010309 1.5416402-3.1639175 1.6379927-.7670103.0963525-1.8216495-.8671726-2.1092784-1.2525826zm7.8618557-.3854101c0 .7708201-.5752577 1.7343452-.8628866 2.3124602-.2876288.5781151-2.2051546 3.3723379-3.3556701 3.3723379-.671134 0-1.5340206-1.0598776-1.5340206-1.5416402 0-.2890575.4793814-.4817625.7670103-.578115.2876289-.0963526.5752577-.1927051.8628866-.2890576 1.4381443-.6744675 2.5886598-2.1197552 3.3556701-3.4686903.1917526-.2890575.3835052-1.0598776.4793815-1.1562301.0958762-.0963525.0958762-.0963525.2876288-.0963525s.0958763.38541.0958763.4817625c-.0958763.8671726-.0958763.4817626-.0958763.9635251zm-.8628866-32.181738c-.0958763-.0963526-.4793814-.2890576-.4793814-.4817626 0-.0963525 0-.192705.0958763-.192705.0958763-.0963525.2876288-.0963525.3835051-.0963525s.7670103.192705 1.0546392.2890575c1.4381443.38541 2.0134021 2.1197552 2.3010309 3.1796328 0 .0963525.0958763.2890575.0958763.38541 0 .0963526 0 .2890576-.0958763.5781151 0 0 0 .0963525-.1917526.0963525-.3835051 0-.671134-.2890575-1.0546391-.7708201-.4793815-.578115-.7670103-1.4452876-1.2463918-2.0234027-.1917526-.2890575-.5752577-.6744675-.8628866-.963525zm1.6298969 10.0206609c-.1917525-.4817625-.3835051-1.1562301-.3835051-1.5416401 0-.6744676.7670103-2.6978703 1.7257732-2.6978703.5752577 0 1.4381443.7708201 1.4381443 1.3489351 0 .1927051-.1917526.3854101-.2876289.3854101-1.0546391.0963525-1.5340206 1.1562301-1.5340206 1.9270502 0 .77082.5752577 1.4452876 1.4381443 1.8306976.1917526.0963525.4793815.0963525.6711341.0963525.0958763 0 .5752577-.0963525.8628866-.2890575.4793814-.2890575.7670103-1.2525826 1.4381443-.9635251.4793814.6744676.671134 1.0598776.671134 1.6379927 0 .8671726-1.9175258 1.1562301-2.1092783 1.1562301-.8628866 0-2.2051547-.5781151-2.972165-1.5416402-.3835051-.38541-.671134-.8671725-.9587629-1.3489351z"/></g></g></svg>